<?xml version="1.0" encoding="UTF-8" standalone="no"?>
<!DOCTYPE svg PUBLIC "-//W3C//DTD SVG 1.1//EN" "http://www.w3.org/Graphics/SVG/1.1/DTD/svg11.dtd">
<svg width="100%" height="100%" viewBox="0 0 256 256" version="1.1" xmlns="http://www.w3.org/2000/svg" xmlns:xlink="http://www.w3.org/1999/xlink" xml:space="preserve" xmlns:serif="http://www.serif.com/" style="fill-rule:evenodd;clip-rule:evenodd;stroke-linejoin:round;stroke-miterlimit:2;">
    <path d="M256,64L256,192C256,227.323 227.323,256 192,256L64,256C28.677,256 0,227.323 0,192L0,64C0,28.677 28.677,0 64,0L192,0C227.323,0 256,28.677 256,64Z" style="fill:url(#_Linear1);"/>
    <g transform="matrix(1,0,0,1,-4.58656,18.7249)">
        <g transform="matrix(133.333,0,0,133.333,49.4976,157.778)">
            <path d="M-0.036,-0L0.344,-0.728L0.506,-0.728L0.645,-0L0.507,-0L0.478,-0.174L0.196,-0.174L0.107,-0L-0.036,-0ZM0.25,-0.28L0.46,-0.28L0.443,-0.382C0.438,-0.416 0.433,-0.451 0.428,-0.487C0.423,-0.524 0.417,-0.565 0.411,-0.611C0.389,-0.565 0.37,-0.524 0.353,-0.487C0.335,-0.451 0.318,-0.416 0.302,-0.382L0.25,-0.28Z" style="fill:white;fill-rule:nonzero;"/>
        </g>
        <g transform="matrix(133.333,0,0,133.333,136.578,157.778)">
            <path d="M0.286,0.012C0.194,0.012 0.126,-0.01 0.081,-0.055C0.036,-0.099 0.02,-0.16 0.033,-0.237L0.159,-0.237C0.152,-0.193 0.16,-0.159 0.184,-0.134C0.208,-0.11 0.245,-0.097 0.295,-0.097C0.341,-0.097 0.38,-0.107 0.412,-0.127C0.443,-0.147 0.462,-0.173 0.467,-0.206C0.471,-0.23 0.465,-0.251 0.448,-0.267C0.43,-0.283 0.399,-0.296 0.352,-0.307L0.276,-0.325C0.206,-0.342 0.156,-0.367 0.127,-0.4C0.097,-0.434 0.086,-0.477 0.095,-0.53C0.102,-0.573 0.119,-0.609 0.146,-0.641C0.173,-0.672 0.207,-0.696 0.249,-0.713C0.291,-0.731 0.338,-0.739 0.391,-0.739C0.473,-0.739 0.535,-0.719 0.578,-0.677C0.62,-0.636 0.637,-0.579 0.626,-0.507L0.504,-0.507C0.508,-0.546 0.499,-0.576 0.477,-0.597C0.456,-0.619 0.424,-0.63 0.382,-0.63C0.341,-0.63 0.305,-0.62 0.276,-0.601C0.246,-0.581 0.228,-0.556 0.223,-0.525C0.219,-0.502 0.226,-0.483 0.243,-0.468C0.26,-0.454 0.291,-0.441 0.336,-0.43L0.408,-0.413C0.48,-0.396 0.532,-0.37 0.563,-0.336C0.593,-0.302 0.604,-0.257 0.595,-0.202C0.588,-0.158 0.57,-0.12 0.543,-0.088C0.516,-0.056 0.48,-0.031 0.436,-0.014C0.392,0.003 0.342,0.012 0.286,0.012Z" style="fill:white;fill-rule:nonzero;"/>
        </g>
    </g>
    <path d="M256,64L256,192C256,227.323 227.323,256 192,256L64,256C28.677,256 0,227.323 0,192L0,64C0,28.677 28.677,0 64,0L192,0C227.323,0 256,28.677 256,64Z" style="fill:url(#_Linear2);"/>
    <g transform="matrix(1,0,0,1,-6.44424,18.7249)">
        <g transform="matrix(133.333,0,0,133.333,43.4429,157.778)">
            <path d="M-0.036,-0L0.344,-0.728L0.506,-0.728L0.645,-0L0.507,-0L0.478,-0.174L0.196,-0.174L0.107,-0L-0.036,-0ZM0.25,-0.28L0.46,-0.28L0.443,-0.382C0.438,-0.416 0.433,-0.451 0.428,-0.487C0.423,-0.524 0.417,-0.565 0.411,-0.611C0.389,-0.565 0.37,-0.524 0.353,-0.487C0.335,-0.451 0.318,-0.416 0.302,-0.382L0.25,-0.28Z" style="fill:white;fill-rule:nonzero;"/>
        </g>
        <g transform="matrix(133.333,0,0,133.333,131.891,157.778)">
            <path d="M0.018,-0L0.139,-0.728L0.274,-0.728L0.464,-0.322C0.47,-0.308 0.479,-0.288 0.49,-0.262C0.5,-0.237 0.511,-0.211 0.521,-0.185C0.525,-0.212 0.529,-0.24 0.533,-0.268C0.537,-0.295 0.54,-0.316 0.542,-0.331L0.608,-0.728L0.738,-0.728L0.617,-0L0.482,-0L0.311,-0.365C0.303,-0.382 0.292,-0.406 0.279,-0.438C0.265,-0.469 0.25,-0.505 0.234,-0.545C0.229,-0.504 0.224,-0.468 0.219,-0.437C0.214,-0.406 0.21,-0.382 0.208,-0.366L0.147,-0L0.018,-0Z" style="fill:white;fill-rule:nonzero;"/>
        </g>
    </g>
    <defs>
        <linearGradient id="_Linear1" x1="0" y1="0" x2="1" y2="0" gradientUnits="userSpaceOnUse" gradientTransform="matrix(256,256,-256,256,0,0)"><stop offset="0" style="stop-color:rgb(255,87,0);stop-opacity:1"/><stop offset="1" style="stop-color:rgb(0,54,255);stop-opacity:1"/></linearGradient>
        <linearGradient id="_Linear2" x1="0" y1="0" x2="1" y2="0" gradientUnits="userSpaceOnUse" gradientTransform="matrix(256,256,-256,256,0,0)"><stop offset="0" style="stop-color:rgb(255,87,0);stop-opacity:1"/><stop offset="1" style="stop-color:rgb(0,54,255);stop-opacity:1"/></linearGradient>
    </defs>
</svg>
